<svg width="14" height="12" viewBox="0 0 14 12" fill="none" xmlns="http://www.w3.org/2000/svg">
<path fill-rule="evenodd" clip-rule="evenodd" d="M6.1932 0.924724L6.13775 0.861919C5.89742 0.621596 5.51927 0.60311 5.25774 0.806459L5.19494 0.861919L0.52827 5.52859L0.500672 5.55789L0.463898 5.60312L0.416122 5.67728L0.380491 5.75243L0.356905 5.82266L0.337613 5.92126L0.333008 5.99999L0.334866 6.05015L0.346501 6.13381L0.366167 6.20809L0.395457 6.28214L0.430338 6.34713L0.479467 6.41696L0.52827 6.47139L5.19494 11.1381C5.45529 11.3984 5.8774 11.3984 6.13775 11.1381C6.37807 10.8977 6.39655 10.5196 6.1932 10.2581L6.13775 10.1953L2.61034 6.66666H12.9997C13.3679 6.66666 13.6663 6.36818 13.6663 5.99999C13.6663 5.6318 13.3679 5.33332 12.9997 5.33332H2.60901L6.13775 1.80473C6.37807 1.5644 6.39655 1.18625 6.1932 0.924724L6.13775 0.861919L6.1932 0.924724Z" fill="#2B3450"/>
</svg>
