<svg width="18" height="10" viewBox="0 0 18 10" fill="none"
  xmlns="http://www.w3.org/2000/svg">
  <path fill-rule="evenodd" clip-rule="evenodd" d="M12.8585 0.247437C13.2741 0.611119 13.3163 1.24288 12.9526 1.65852L10.1526 4.85852C9.7889 5.27416 9.15713 5.31627 8.7415 4.95259C8.32586 4.58891 8.28374 3.95715 8.64742 3.54151L11.4474 0.341509C11.8111 -0.0741276 12.4429 -0.116245 12.8585 0.247437ZM17.6585 0.247437C18.0741 0.611119 18.1163 1.24288 17.7526 1.65852L10.7526 9.65852C10.5731 9.86362 10.3177 9.98659 10.0455 9.99898C9.77321 10.0114 9.5077 9.91211 9.31035 9.72415L7.44751 7.95002L5.95258 9.65852C5.77311 9.86362 5.51771 9.98659 5.24546 9.99898C4.97321 10.0114 4.7077 9.91211 4.51035 9.72415L0.310347 5.72415C-0.0895837 5.34327 -0.105022 4.71029 0.275864 4.31036C0.65675 3.91043 1.28973 3.89499 1.68966 4.27588L5.13431 7.5565L5.99795 6.56948L5.11035 5.72415C4.71042 5.34327 4.69498 4.71029 5.07586 4.31036C5.45675 3.91043 6.08973 3.89499 6.48966 4.27588L9.93431 7.5565L16.2474 0.341509C16.6111 -0.0741276 17.2429 -0.116245 17.6585 0.247437Z" fill="#A0A7B5"/>
</svg>
