<svg width="14" height="14" viewBox="0 0 14 14" fill="none" xmlns="http://www.w3.org/2000/svg">
<path fill-rule="evenodd" clip-rule="evenodd" d="M7 3.58337C7.41421 3.58337 7.75 3.91916 7.75 4.33337V6.68938L9.53033 8.46971C9.82322 8.7626 9.82322 9.23748 9.53033 9.53037C9.23744 9.82326 8.76256 9.82326 8.46967 9.53037L6.25 7.3107V4.33337C6.25 3.91916 6.58579 3.58337 7 3.58337Z" fill="#A0A7B5"/>
<path fill-rule="evenodd" clip-rule="evenodd" d="M7 1.75C4.10051 1.75 1.75 4.10051 1.75 7C1.75 9.8995 4.10051 12.25 7 12.25C9.8995 12.25 12.25 9.8995 12.25 7C12.25 4.10051 9.8995 1.75 7 1.75ZM0.25 7C0.25 3.27208 3.27208 0.25 7 0.25C10.7279 0.25 13.75 3.27208 13.75 7C13.75 10.7279 10.7279 13.75 7 13.75C3.27208 13.75 0.25 10.7279 0.25 7Z" fill="#A0A7B5"/>
</svg>
