<svg width="20" height="8" viewBox="0 0 20 8" fill="none"
  xmlns="http://www.w3.org/2000/svg">
  <rect width="20" height="8" fill="#1E1E1E"/>
  <rect width="3468" height="1918" transform="translate(-1287 -895)" fill="white"/>
  <path d="M8.42105 1C8.42105 0.447715 7.97334 0 7.42105 0H4.21053C1.88512 0 0 1.79086 0 4C0 6.20914 1.88512 8 4.21053 8H7.42105C7.97334 8 8.42105 7.55228 8.42105 7V7C8.42105 6.44772 7.97334 6 7.42105 6H4.21053C3.04782 6 2.10526 5.10457 2.10526 4C2.10526 2.89543 3.04782 2 4.21053 2H7.42105C7.97334 2 8.42105 1.55228 8.42105 1V1Z" fill="#4E5E78"/>
  <path d="M11.5789 7C11.5789 6.44772 12.0267 6 12.5789 6H15.7895C16.9522 6 17.8947 5.10457 17.8947 4C17.8947 2.89543 16.9522 2 15.7895 2H12.5789C12.0267 2 11.5789 1.55228 11.5789 1V1C11.5789 0.447715 12.0267 0 12.5789 0H15.7895C18.1149 0 20 1.79086 20 4C20 6.20914 18.1149 8 15.7895 8H12.5789C12.0267 8 11.5789 7.55228 11.5789 7V7Z" fill="#4E5E78"/>
  <path d="M13 4L7 4" stroke="#4E5E78" stroke-width="2" stroke-linecap="round"/>
</svg>
