<?xml version="1.0" encoding="utf-8"?>
<!-- Generator: Adobe Illustrator 26.5.0, SVG Export Plug-In . SVG Version: 6.00 Build 0)  -->
<svg version="1.1" baseProfile="basic" id="Layer_1"
	 xmlns="http://www.w3.org/2000/svg" xmlns:xlink="http://www.w3.org/1999/xlink" x="0px" y="0px" viewBox="0 0 100 80"
	 xml:space="preserve">
<style type="text/css">
	.st0{fill:#2B3450;}
</style>
<g>
	<g>
		<path class="st0" d="M78.73,43.51l-1.23,5.9c-0.2,1.03-1.11,1.76-2.15,1.76H62.19c-1.04,0-1.94-0.73-2.16-1.75l-1.23-5.9
			c-0.06-0.28-0.02-0.55,0.09-0.79c2.11,0.43,4.39,0.7,6.77,0.77c3.34,0.1,6.5-0.21,9.29-0.84c0.19-0.04,0.14-0.3-0.06-0.28
			c-2,0.22-4.13,0.3-6.33,0.24c-2.85-0.08-5.57-0.41-8.04-0.93l0.49-0.19c1.29-0.51,2.14-1.76,2.14-3.14V27.78
			c0-2.06,1.11-4.26,2.77-5.51c0.65,0.3,1.38,0.48,2.15,0.48c0.68,0,1.34-0.14,1.93-0.38c0.15-0.06,0.08-0.28-0.07-0.26
			c-0.2,0.03-0.41,0.04-0.63,0.04c-0.8,0-1.54-0.21-2.19-0.57l0.46-4.04V6.13c0-1.4-1.14-2.54-2.54-2.54H26.24
			c-0.92,0-1.72,0.48-2.18,1.2h27.82c0.33,0,0.6,0.27,0.6,0.6c0,0.33-0.27,0.6-0.6,0.6H23.66c-0.01,0.07-0.02,0.13-0.02,0.19v0.83
			c0,0.06,0.01,0.12,0.02,0.18h29.35c0.33,0,0.6,0.27,0.6,0.6s-0.27,0.6-0.6,0.6H24.05c0.46,0.72,1.26,1.2,2.18,1.2h25.3
			c2.64,0,4.79,2.14,4.79,4.79v31.97c0,2.66-2.15,4.81-4.81,4.81H26.05c-2.66,0-4.81-2.15-4.81-4.81V14.39V5.98
			c0-2.66,2.15-4.81,4.81-4.81h39.1c2.66,0,4.81,2.16,4.81,4.81V17.5l0.47,4.09c2.29,0.93,3.95,3.67,3.95,6.19v10.56
			c0,1.39,0.85,2.63,2.14,3.14l1.43,0.57C78.53,42.29,78.86,42.9,78.73,43.51z M26.05,11.98c-1.33,0-2.41,1.08-2.41,2.41v31.97
			c0,1.33,1.08,2.41,2.41,2.41h25.46c1.33,0,2.41-1.08,2.41-2.41V14.39c0-1.33-1.08-2.41-2.41-2.41H26.05z M72.42,30.8
			c0-2.18-1.63-3.95-3.65-3.95c-2.02,0-3.65,1.77-3.65,3.95l0.33,5.34c0.01,0.09,0.12,0.08,0.12,0l0.04-4.72
			c0-2,1.41-3.62,3.15-3.62c1.74,0,3.15,1.62,3.15,3.62l0.04,4.72c0,0.09,0.12,0.09,0.12,0L72.42,30.8z"/>
	</g>
	<path class="st0" d="M31.65,24.65c0.79-1.66,1.54-3.35,2.38-4.99c0.6-1.18,1.31-2.3,1.99-3.44c0.42-0.71,1.07-0.98,1.88-0.91
		c0.6,0.06,0.99,0.37,1.03,0.98c0.03,0.42-0.01,0.88-0.15,1.28c-0.53,1.47-1.12,2.91-1.68,4.37c-0.06,0.15-0.11,0.3-0.08,0.49
		c0.09-0.15,0.18-0.31,0.28-0.46c1.13-1.81,2.25-3.62,3.38-5.42c0.36-0.57,0.87-0.97,1.54-1.14c1.09-0.27,1.84,0.28,1.86,1.4
		c0.02,0.96-0.26,1.87-0.71,2.7c-1.21,2.21-2.45,4.39-3.68,6.59c-0.23,0.42-0.44,0.85-0.66,1.26c1.13,0,2.2-0.1,3.26,0.02
		c1.54,0.18,2.83,0.96,4.01,1.95c0.75,0.63,1.24,1.44,1.72,2.26c0.45,0.77,0.28,2.18-0.3,2.85c-0.85,0.98-2.38,0.76-2.93-0.41
		c-0.65-1.39-1.71-2.22-3.22-2.63c-2.7-0.73-5.44,1.44-5.74,3.94c-0.32,2.78,1.7,5.21,4.51,5.32c1.93,0.07,3.32-0.89,4.37-2.43
		c0.36-0.53,0.62-1.13,1.04-1.6c0.33-0.36,0.8-0.73,1.26-0.82c1.28-0.25,2.18,0.92,1.81,2.27c-0.77,2.8-2.47,4.87-4.86,6.5
		c-5.82,3.97-15.61,0.44-16.4-8.42c-0.35-3.94,0.05-7.84,0.77-11.71c0.25-1.37,0.59-2.72,0.95-4.06c0.13-0.47,0.41-0.92,0.67-1.34
		c0.24-0.38,0.59-0.66,1.09-0.57c0.52,0.1,1.02,0.34,1.12,0.88c0.11,0.6,0.13,1.23,0.04,1.83c-0.17,1.16-0.45,2.29-0.68,3.44
		C31.57,24.64,31.61,24.64,31.65,24.65z"/>
</g>
<g>
	<path class="st0" d="M9.21,78.55c-2.76,0-4.9-0.72-6.43-2.15c-1.52-1.43-2.29-3.58-2.29-6.45V59.38h5.3v10.46
		c0,1.33,0.31,2.33,0.93,3c0.62,0.67,1.47,1.01,2.54,1.01c1.08,0,1.92-0.32,2.54-0.97c0.62-0.65,0.93-1.61,0.93-2.9V59.38h5.3v10.43
		c0,2.94-0.78,5.13-2.33,6.57C14.15,77.83,11.99,78.55,9.21,78.55z"/>
	<path class="st0" d="M29.13,78.53c-3.55,0-6.49-1.04-8.82-3.12l2.9-3.47c1.88,1.51,3.92,2.26,6.1,2.26c1.43,0,2.15-0.45,2.15-1.34
		c0-0.39-0.22-0.72-0.65-0.98c-0.43-0.26-1.27-0.53-2.53-0.82c-1.15-0.27-2.09-0.53-2.84-0.79c-0.74-0.26-1.47-0.61-2.18-1.05
		c-0.71-0.44-1.23-1-1.57-1.68c-0.34-0.68-0.51-1.5-0.51-2.45c0-1.77,0.66-3.22,1.98-4.34c1.32-1.12,3.09-1.68,5.31-1.68
		c3.08,0,5.66,0.83,7.74,2.5l-2.61,3.68c-1.76-1.24-3.51-1.86-5.27-1.86c-0.61,0-1.08,0.12-1.4,0.35c-0.32,0.23-0.48,0.54-0.48,0.91
		c0,0.43,0.22,0.77,0.66,1.02c0.44,0.25,1.3,0.52,2.59,0.81C32.09,67,33.85,67.7,35,68.56c1.16,0.87,1.73,2.15,1.73,3.83
		c0,1.9-0.69,3.4-2.07,4.49C33.29,77.98,31.44,78.53,29.13,78.53z"/>
	<path class="st0" d="M39.12,78.2V59.38h7.26c3.3,0,5.89,0.86,7.78,2.58c1.89,1.72,2.84,3.98,2.84,6.78c0,2.78-0.96,5.05-2.88,6.82
		c-1.92,1.77-4.53,2.65-7.85,2.65H39.12z M44.34,73.58h2.12c1.58,0,2.84-0.42,3.78-1.26c0.94-0.84,1.41-2.03,1.41-3.55
		c0-1.49-0.47-2.66-1.41-3.52c-0.94-0.86-2.2-1.29-3.78-1.29h-2.12V73.58z"/>
	<path class="st0" d="M76.42,75.65c-1.77,1.92-4.05,2.88-6.83,2.88c-2.78,0-5.05-0.95-6.8-2.86c-1.76-1.91-2.63-4.2-2.63-6.87
		c0-2.65,0.89-4.94,2.66-6.86c1.77-1.92,4.05-2.88,6.83-2.88c2.78,0,5.05,0.95,6.8,2.86c1.76,1.91,2.63,4.2,2.63,6.87
		C79.08,71.45,78.19,73.73,76.42,75.65z M63.9,74.79c1.53,1.65,3.45,2.47,5.74,2.47c2.29,0,4.2-0.82,5.71-2.45
		c1.51-1.63,2.27-3.64,2.27-6.02c0-2.35-0.77-4.35-2.3-6c-1.53-1.65-3.45-2.47-5.74-2.47c-2.29,0-4.2,0.82-5.71,2.45
		c-1.51,1.63-2.27,3.64-2.27,6.02C61.6,71.14,62.37,73.14,63.9,74.79z"/>
	<path class="st0" d="M82.26,78.2V59.38h1.4v12.17l13.59-12.17h1.91l-8.61,7.82l8.95,11h-1.83l-8.17-10.05l-5.85,5.26v4.79H82.26z"
		/>
</g>
</svg>
