<svg width="22" height="22" viewBox="0 0 22 22" fill="none" xmlns="http://www.w3.org/2000/svg">
<path fill-rule="evenodd" clip-rule="evenodd" d="M6 0H16C19.3137 0 22 2.68629 22 6V16C22 19.3137 19.3137 22 16 22H6C2.68629 22 0 19.3137 0 16V6C0 2.68629 2.68629 0 6 0ZM6 2C3.79086 2 2 3.79086 2 6V16C2 18.2091 3.79086 20 6 20H16C18.2091 20 20 18.2091 20 16V6C20 3.79086 18.2091 2 16 2H6Z" fill="#39CB8A"/>
<path fill-rule="evenodd" clip-rule="evenodd" d="M2.79289 19.6949C2.40237 19.3044 2.40237 18.6712 2.79289 18.2807L7.7835 13.2901L7.79753 13.2771C8.2212 12.8846 8.87622 12.8866 9.29748 13.2817L9.29923 13.2833L10.3259 14.2507L13.6277 10.4274C14.0442 9.94522 14.7819 9.91658 15.2345 10.3651L15.2492 10.3796L21.2326 16.8193C21.6085 17.2239 21.5853 17.8567 21.1807 18.2326C20.7761 18.6085 20.1434 18.5853 19.7674 18.1807L14.4847 12.4951L11.7828 15.6235L16.1858 19.7722C16.5877 20.1509 16.6066 20.7838 16.2278 21.1858C15.8491 21.5877 15.2162 21.6066 14.8142 21.2278L8.56374 15.3383L4.20711 19.6949C3.81658 20.0854 3.18342 20.0854 2.79289 19.6949ZM8.00001 7C7.44772 7 7.00001 7.44772 7.00001 8C7.00001 8.55228 7.44772 9 8.00001 9C8.55229 9 9.00001 8.55228 9.00001 8C9.00001 7.44772 8.55229 7 8.00001 7ZM11 8C11 9.65685 9.65686 11 8.00001 11C6.34315 11 5.00001 9.65685 5.00001 8C5.00001 6.34315 6.34315 5 8.00001 5C9.65686 5 11 6.34315 11 8Z" fill="#39CB8A"/>
</svg>
