<svg width="22" height="22" viewBox="0 0 22 22" fill="none" xmlns="http://www.w3.org/2000/svg">
<path fill-rule="evenodd" clip-rule="evenodd" d="M8.78197 1.95036C9.97198 0.643661 12.028 0.643663 13.218 1.95036L13.9535 2.75796C14.154 2.97809 14.4421 3.09744 14.7396 3.08354L15.8307 3.03255C17.5961 2.95004 19.05 4.40389 18.9675 6.16933L18.9165 7.26045C18.9026 7.55787 19.0219 7.84601 19.2421 8.04648L20.0496 8.78197C21.3563 9.97198 21.3563 12.028 20.0496 13.218L19.2421 13.9535C19.0219 14.154 18.9026 14.4421 18.9165 14.7396L18.9675 15.8307C19.05 17.5961 17.5961 19.05 15.8307 18.9675L14.7396 18.9165C14.4421 18.9026 14.154 19.0219 13.9535 19.2421L13.218 20.0496C12.028 21.3563 9.97198 21.3563 8.78197 20.0496L8.04648 19.2421C7.84601 19.0219 7.55787 18.9026 7.26045 18.9165L6.16933 18.9675C4.40388 19.05 2.95004 17.5961 3.03255 15.8307L3.08354 14.7396C3.09744 14.4421 2.97809 14.154 2.75796 13.9535L1.95036 13.218C0.643661 12.028 0.643663 9.97198 1.95036 8.78197L2.75796 8.04648C2.97809 7.84601 3.09744 7.55787 3.08354 7.26045L3.03255 6.16933C2.95004 4.40389 4.40389 2.95004 6.16933 3.03255L7.26045 3.08354C7.55787 3.09744 7.84601 2.97809 8.04648 2.75796L8.78197 1.95036ZM11.7394 3.29701C11.3427 2.86145 10.6573 2.86145 10.2607 3.29701L9.52518 4.10461C8.92375 4.76501 8.05933 5.12306 7.16709 5.08136L6.07596 5.03037C5.48748 5.00287 5.00287 5.48748 5.03037 6.07596L5.08136 7.16709C5.12306 8.05933 4.76501 8.92375 4.10461 9.52518L3.29701 10.2607C2.86145 10.6573 2.86145 11.3427 3.29701 11.7394L4.10461 12.4748C4.76501 13.0763 5.12306 13.9407 5.08136 14.8329L5.03037 15.924C5.00287 16.5125 5.48748 16.9971 6.07596 16.9696L7.16709 16.9186C8.05933 16.8769 8.92375 17.235 9.52518 17.8954L10.2607 18.703C10.6573 19.1386 11.3427 19.1386 11.7394 18.703L12.4748 17.8954C13.0763 17.235 13.9407 16.8769 14.8329 16.9186L15.924 16.9696C16.5125 16.9971 16.9971 16.5125 16.9696 15.924L16.9186 14.8329C16.8769 13.9407 17.235 13.0763 17.8954 12.4748L18.703 11.7394C19.1386 11.3427 19.1386 10.6573 18.703 10.2607L17.8954 9.52518C17.235 8.92375 16.8769 8.05933 16.9186 7.16709L16.9696 6.07596C16.9971 5.48748 16.5125 5.00287 15.924 5.03037L14.8329 5.08136C13.9407 5.12306 13.0763 4.76501 12.4748 4.10461L11.7394 3.29701Z" fill="#2B3450"/>
<path fill-rule="evenodd" clip-rule="evenodd" d="M11 9C9.89543 9 9 9.89543 9 11C9 12.1046 9.89543 13 11 13C12.1046 13 13 12.1046 13 11C13 9.89543 12.1046 9 11 9ZM7 11C7 8.79086 8.79086 7 11 7C13.2091 7 15 8.79086 15 11C15 13.2091 13.2091 15 11 15C8.79086 15 7 13.2091 7 11Z" fill="#2B3450"/>
</svg>
