<svg width="18" height="20" viewBox="0 0 18 20" fill="none"
  xmlns="http://www.w3.org/2000/svg">
  <path fill-rule="evenodd" clip-rule="evenodd" d="M18 3.5C18 5.433 16.433 7 14.5 7C13.598 7 12.7757 6.6588 12.1551 6.09843L6.88613 9.6111C6.96044 9.89495 7 10.1929 7 10.5C7 10.8071 6.96044 11.1051 6.88613 11.3889L11.6039 14.5341C12.2336 13.6081 13.2958 13 14.5 13C16.433 13 18 14.567 18 16.5C18 18.433 16.433 20 14.5 20C12.5788 20 11.0191 18.452 11.0002 16.5353L5.84486 13.0984C5.22429 13.6588 4.40199 14 3.5 14C1.567 14 0 12.433 0 10.5C0 8.567 1.567 7 3.5 7C4.40199 7 5.22429 7.3412 5.84486 7.90157L11.1139 4.3889C11.0396 4.10505 11 3.80715 11 3.5C11 1.567 12.567 0 14.5 0C16.433 0 18 1.567 18 3.5ZM14.5 5C15.3284 5 16 4.32843 16 3.5C16 2.67157 15.3284 2 14.5 2C13.6716 2 13 2.67157 13 3.5C13 4.32843 13.6716 5 14.5 5ZM3.5 12C4.32843 12 5 11.3284 5 10.5C5 9.67157 4.32843 9 3.5 9C2.67157 9 2 9.67157 2 10.5C2 11.3284 2.67157 12 3.5 12ZM16 16.5C16 17.3284 15.3284 18 14.5 18C13.6716 18 13 17.3284 13 16.5C13 15.6716 13.6716 15 14.5 15C15.3284 15 16 15.6716 16 16.5Z" fill="#4E5E78"/>
</svg>
