<svg width="20" height="20" viewBox="0 0 20 20" fill="none" xmlns="http://www.w3.org/2000/svg">
<path fill-rule="evenodd" clip-rule="evenodd" d="M3 0C1.34315 0 0 1.34315 0 3V6C0 7.65685 1.34315 9 3 9H6C7.65685 9 9 7.65685 9 6V3C9 1.34315 7.65685 0 6 0H3ZM2 3C2 2.44772 2.44772 2 3 2H6C6.55228 2 7 2.44772 7 3V6C7 6.55228 6.55228 7 6 7H3C2.44772 7 2 6.55228 2 6V3Z" fill="#387DFF"/>
<path fill-rule="evenodd" clip-rule="evenodd" d="M14 0C12.3431 0 11 1.34315 11 3V6C11 7.65685 12.3431 9 14 9H17C18.6569 9 20 7.65685 20 6V3C20 1.34315 18.6569 0 17 0H14ZM13 3C13 2.44772 13.4477 2 14 2H17C17.5523 2 18 2.44772 18 3V6C18 6.55228 17.5523 7 17 7H14C13.4477 7 13 6.55228 13 6V3Z" fill="#387DFF"/>
<path fill-rule="evenodd" clip-rule="evenodd" d="M0 14C0 12.3431 1.34315 11 3 11H6C7.65685 11 9 12.3431 9 14V17C9 18.6569 7.65685 20 6 20H3C1.34315 20 0 18.6569 0 17V14ZM3 13C2.44772 13 2 13.4477 2 14V17C2 17.5523 2.44772 18 3 18H6C6.55228 18 7 17.5523 7 17V14C7 13.4477 6.55228 13 6 13H3Z" fill="#387DFF"/>
<path fill-rule="evenodd" clip-rule="evenodd" d="M14 11C12.3431 11 11 12.3431 11 14V17C11 18.6569 12.3431 20 14 20H17C18.6569 20 20 18.6569 20 17V14C20 12.3431 18.6569 11 17 11H14ZM13 14C13 13.4477 13.4477 13 14 13H17C17.5523 13 18 13.4477 18 14V17C18 17.5523 17.5523 18 17 18H14C13.4477 18 13 17.5523 13 17V14Z" fill="#387DFF"/>
</svg>
