<svg width="20" height="19" viewBox="0 0 20 19" fill="none" xmlns="http://www.w3.org/2000/svg">
<path fill-rule="evenodd" clip-rule="evenodd" d="M5 2C3.34308 2 2 3.34308 2 4.9997V10.2642C2 11.9208 3.34308 13.2639 5 13.2639H6V15.0426L8.25282 13.2639H15C16.6569 13.2639 18 11.9208 18 10.2642V4.99971C18 3.34308 16.6569 2 15 2H5ZM0 4.9997C0 2.23837 2.23865 0 5 0H15C17.7614 0 20 2.23838 20 4.99971V10.2642C20 13.0255 17.7614 15.2639 15 15.2639H8.94718L5.78164 17.7632C5.0604 18.3326 4 17.819 4 16.8998L4 15.1639C1.7178 14.7007 0 12.6831 0 10.2642V4.9997Z" fill="#2B3450"/>
<path d="M7 8C7 8.55228 6.55228 9 6 9C5.44772 9 5 8.55228 5 8C5 7.44772 5.44772 7 6 7C6.55228 7 7 7.44772 7 8Z" fill="#2B3450"/>
<path d="M11 8C11 8.55228 10.5523 9 10 9C9.44772 9 9 8.55228 9 8C9 7.44772 9.44772 7 10 7C10.5523 7 11 7.44772 11 8Z" fill="#2B3450"/>
<path d="M15 8C15 8.55228 14.5523 9 14 9C13.4477 9 13 8.55228 13 8C13 7.44772 13.4477 7 14 7C14.5523 7 15 7.44772 15 8Z" fill="#2B3450"/>
</svg>
