<svg width="16" height="20" viewBox="0 0 16 20" fill="none" xmlns="http://www.w3.org/2000/svg">
<path fill-rule="evenodd" clip-rule="evenodd" d="M5.33497 2.72727V3.25342C2.64516 4.35644 0.765923 7.97935 0.834116 11.1192L0.834094 12.8631C-0.542872 14.6333 -0.461854 17.2727 2.9735 17.2727H5.33497C5.33497 17.996 5.61684 18.6897 6.11858 19.2012C6.62033 19.7127 7.30083 20 8.01041 20C8.71998 20 9.40049 19.7127 9.90223 19.2012C10.404 18.6897 10.6858 17.996 10.6858 17.2727H13.0538C16.4826 17.2727 16.5323 14.6278 15.1555 12.8576L15.1938 11.1216C15.2631 7.97811 13.3803 4.35194 10.6858 3.25049V2.72727C10.6858 2.00396 10.404 1.31026 9.90223 0.7988C9.40049 0.287337 8.71998 0 8.01041 0C7.30083 0 6.62033 0.287337 6.11858 0.798799C5.61684 1.31026 5.33497 2.00395 5.33497 2.72727ZM8.90222 2.72727C8.90222 2.74573 8.90167 2.76414 8.90058 2.78246C8.61013 2.74603 8.31424 2.72727 8.01399 2.72727C7.71128 2.72727 7.41302 2.74634 7.12029 2.78335C7.11916 2.76474 7.11859 2.74603 7.11859 2.72727C7.11859 2.48617 7.21255 2.25494 7.3798 2.08445C7.54705 1.91396 7.77388 1.81818 8.01041 1.81818C8.24693 1.81818 8.47377 1.91396 8.64101 2.08445C8.80826 2.25494 8.90222 2.48617 8.90222 2.72727ZM7.11859 17.2727C7.11859 17.5138 7.21255 17.7451 7.3798 17.9156C7.54705 18.086 7.77388 18.1818 8.01041 18.1818C8.24693 18.1818 8.47377 18.086 8.64101 17.9156C8.80826 17.7451 8.90222 17.5138 8.90222 17.2727H7.11859ZM13.0538 15.4545C13.8157 15.4545 14.2267 14.5435 13.7309 13.9538V13.9538C13.49 13.6673 13.3616 13.3028 13.3699 12.9286L13.4106 11.0808C13.4787 7.99416 11.0427 4.54545 8.01399 4.54545C4.98598 4.54545 2.55028 7.99301 2.61731 11.0789L2.65748 12.9289C2.66561 13.303 2.53726 13.6674 2.29639 13.9538V13.9538C1.80054 14.5435 2.21158 15.4545 2.9735 15.4545H13.0538Z" fill="#2B3450"/>
</svg>
