<svg width="26" height="27" viewBox="0 0 26 27" fill="none" xmlns="http://www.w3.org/2000/svg">
<path fill-rule="evenodd" clip-rule="evenodd" d="M13.0001 5.52667C15.4412 5.52667 17.0878 6.58111 18.0267 7.46222L21.6956 3.88C19.4423 1.78556 16.5101 0.5 13.0001 0.5C7.91561 0.5 3.5245 3.41778 1.38672 7.66444L5.59005 10.9289C6.6445 7.79445 9.56227 5.52667 13.0001 5.52667Z" fill="#EA4335"/>
<path fill-rule="evenodd" clip-rule="evenodd" d="M25.48 13.7889C25.48 12.72 25.3933 11.94 25.2056 11.1311H13V15.9555H20.1644C20.02 17.1544 19.24 18.96 17.5067 20.1733L21.6089 23.3511C24.0644 21.0833 25.48 17.7467 25.48 13.7889Z" fill="#4285F4"/>
<path fill-rule="evenodd" clip-rule="evenodd" d="M5.60444 16.0711C5.33 15.2622 5.17111 14.3955 5.17111 13.5C5.17111 12.6044 5.33 11.7378 5.59 10.9289L1.38667 7.66443C0.505556 9.42665 0 11.4055 0 13.5C0 15.5944 0.505556 17.5733 1.38667 19.3355L5.60444 16.0711Z" fill="#FBBC05"/>
<path fill-rule="evenodd" clip-rule="evenodd" d="M13 26.5C16.51 26.5 19.4567 25.3444 21.6089 23.3511L17.5067 20.1733C16.4089 20.9389 14.9356 21.4733 13 21.4733C9.56223 21.4733 6.64446 19.2056 5.60446 16.0711L1.40112 19.3356C3.5389 23.5822 7.91557 26.5 13 26.5Z" fill="#34A853"/>
</svg>
