<svg width="20" height="20" viewBox="0 0 20 20" fill="none" xmlns="http://www.w3.org/2000/svg">
<path d="M11 0C8.23857 0 6 2.23858 6 5C6 5.55228 6.44771 6 7 6C7.55228 6 8 5.55228 8 5C8 3.34315 9.34314 2 11 2H15C16.6569 2 18 3.34315 18 5V15C18 16.6569 16.6569 18 15 18H11C9.34314 18 8 16.6569 8 15C8 14.4477 7.55228 14 7 14C6.44771 14 6 14.4477 6 15C6 17.7614 8.23857 20 11 20H15C17.7614 20 20 17.7614 20 15V5C20 2.23858 17.7614 0 15 0H11Z" fill="#2B3450"/>
<path d="M12 9C12.5523 9 13 9.44772 13 10C13 10.5523 12.5523 11 12 11V9Z" fill="#2B3450"/>
<path d="M3.71792 9C3.80694 8.89023 3.89223 8.78371 3.97292 8.68195C4.2184 8.37235 4.42624 8.10041 4.573 7.90549C4.64645 7.80795 4.70477 7.72946 4.74504 7.67492L4.79161 7.61162L4.80409 7.59454L4.80851 7.58848C4.80855 7.58842 4.80902 7.58778 4 7L4.80851 7.58848C5.13313 7.14167 5.03459 6.51561 4.58778 6.19098C4.141 5.86637 3.51567 5.9654 3.19103 6.41215L3.18821 6.41602L3.17798 6.43002L3.13621 6.48679C3.09927 6.53682 3.04465 6.61033 2.97525 6.7025C2.83632 6.88702 2.63883 7.14542 2.40576 7.43937C1.93452 8.0337 1.33768 8.7481 0.792892 9.29289L0.0857849 10L0.792892 10.7071C1.33768 11.2519 1.93452 11.9663 2.40576 12.5606C2.63883 12.8546 2.83632 13.113 2.97525 13.2975C3.04465 13.3897 3.09927 13.4632 3.13621 13.5132L3.17798 13.57L3.18821 13.584L3.19055 13.5872C3.51518 14.0339 4.141 14.1336 4.58778 13.809C5.03459 13.4844 5.13364 12.859 4.80902 12.4122L4 13C4.80902 12.4122 4.80906 12.4123 4.80902 12.4122L4.80409 12.4055L4.79161 12.3884L4.74504 12.3251C4.70477 12.2705 4.64645 12.1921 4.573 12.0945C4.42624 11.8996 4.2184 11.6277 3.97292 11.318C3.89223 11.2163 3.80694 11.1098 3.71792 11H12V9H3.71792Z" fill="#2B3450"/>
</svg>
