<?xml version="1.0" encoding="utf-8"?>
<!-- Generator: Adobe Illustrator 26.5.0, SVG Export Plug-In . SVG Version: 6.00 Build 0)  -->
<svg version="1.1" baseProfile="basic" id="Layer_1"
	 xmlns="http://www.w3.org/2000/svg" xmlns:xlink="http://www.w3.org/1999/xlink" x="0px" y="0px" viewBox="0 0 170 50"
	 xml:space="preserve">
<style type="text/css">
	.st0{fill:#2B3450;}
</style>
<g>
	<path class="st0" d="M58.73,42.34l-1.23,5.9C57.3,49.27,56.39,50,55.35,50H42.19c-1.04,0-1.94-0.73-2.16-1.75l-1.23-5.9
		c-0.06-0.28-0.02-0.55,0.09-0.79c2.11,0.43,4.39,0.7,6.77,0.77c3.34,0.1,6.5-0.21,9.29-0.84c0.19-0.04,0.14-0.3-0.06-0.28
		c-2,0.22-4.13,0.3-6.33,0.24c-2.85-0.08-5.57-0.41-8.04-0.93l0.49-0.19c1.29-0.51,2.14-1.76,2.14-3.14V26.61
		c0-2.06,1.11-4.26,2.77-5.51c0.65,0.3,1.38,0.48,2.15,0.48c0.68,0,1.34-0.14,1.93-0.38c0.15-0.06,0.08-0.28-0.07-0.26
		c-0.2,0.03-0.41,0.04-0.63,0.04c-0.8,0-1.54-0.21-2.19-0.57l0.46-4.04V4.96c0-1.4-1.14-2.54-2.54-2.54H6.24
		c-0.92,0-1.72,0.48-2.18,1.2h27.82c0.33,0,0.6,0.27,0.6,0.6c0,0.33-0.27,0.6-0.6,0.6H3.66C3.65,4.89,3.64,4.95,3.64,5.01v0.83
		c0,0.06,0.01,0.12,0.02,0.18h29.35c0.33,0,0.6,0.27,0.6,0.6s-0.27,0.6-0.6,0.6H4.05c0.46,0.72,1.26,1.2,2.18,1.2h25.3
		c2.64,0,4.79,2.14,4.79,4.79v31.97c0,2.66-2.15,4.81-4.81,4.81H6.05c-2.66,0-4.81-2.15-4.81-4.81V13.22V4.81
		C1.24,2.15,3.39,0,6.05,0h39.1c2.66,0,4.81,2.16,4.81,4.81v11.52l0.47,4.09c2.29,0.93,3.95,3.67,3.95,6.19v10.56
		c0,1.39,0.85,2.63,2.14,3.14l1.43,0.57C58.53,41.12,58.86,41.73,58.73,42.34z M6.05,10.81c-1.33,0-2.41,1.08-2.41,2.41v31.97
		c0,1.33,1.08,2.41,2.41,2.41h25.46c1.33,0,2.41-1.08,2.41-2.41V13.22c0-1.33-1.08-2.41-2.41-2.41H6.05z M52.42,29.63
		c0-2.18-1.63-3.95-3.65-3.95s-3.65,1.77-3.65,3.95l0.33,5.34c0.01,0.09,0.12,0.08,0.12,0l0.04-4.72c0-2,1.41-3.62,3.15-3.62
		s3.15,1.62,3.15,3.62l0.04,4.72c0,0.09,0.12,0.09,0.12,0L52.42,29.63z"/>
</g>
<path class="st0" d="M11.65,23.48c0.79-1.66,1.54-3.35,2.38-4.99c0.6-1.18,1.31-2.3,1.99-3.44c0.42-0.71,1.07-0.98,1.88-0.91
	c0.6,0.06,0.99,0.37,1.03,0.98c0.03,0.42-0.01,0.88-0.15,1.28c-0.53,1.47-1.12,2.91-1.68,4.37c-0.06,0.15-0.11,0.3-0.08,0.49
	c0.09-0.15,0.18-0.31,0.28-0.46c1.13-1.81,2.25-3.62,3.38-5.42c0.36-0.57,0.87-0.97,1.54-1.14c1.09-0.27,1.84,0.28,1.86,1.4
	c0.02,0.96-0.26,1.87-0.71,2.7c-1.21,2.21-2.45,4.39-3.68,6.59c-0.23,0.42-0.44,0.85-0.66,1.26c1.13,0,2.2-0.1,3.26,0.02
	c1.54,0.18,2.83,0.96,4.01,1.95c0.75,0.63,1.24,1.44,1.72,2.26c0.45,0.77,0.28,2.18-0.3,2.85c-0.85,0.98-2.38,0.76-2.93-0.41
	c-0.65-1.39-1.71-2.22-3.22-2.63c-2.7-0.73-5.44,1.44-5.74,3.94c-0.32,2.78,1.7,5.21,4.51,5.32c1.93,0.07,3.32-0.89,4.37-2.43
	c0.36-0.53,0.62-1.13,1.04-1.6c0.33-0.36,0.8-0.73,1.26-0.82c1.28-0.25,2.18,0.92,1.81,2.27c-0.77,2.8-2.47,4.87-4.86,6.5
	c-5.82,3.97-15.61,0.44-16.4-8.42c-0.35-3.94,0.05-7.84,0.77-11.71c0.25-1.37,0.59-2.72,0.95-4.06c0.13-0.47,0.41-0.92,0.67-1.34
	c0.24-0.38,0.59-0.66,1.09-0.57c0.52,0.1,1.02,0.34,1.12,0.88c0.11,0.6,0.13,1.23,0.04,1.83c-0.17,1.16-0.45,2.29-0.68,3.44
	C11.57,23.47,11.61,23.47,11.65,23.48z"/>
<g>
	<path class="st0" d="M76.02,35.03c-2.84,0-5.04-0.74-6.61-2.21c-1.57-1.47-2.35-3.69-2.35-6.64V15.31h5.45v10.76
		c0,1.36,0.32,2.39,0.95,3.08c0.64,0.69,1.51,1.04,2.61,1.04c1.11,0,1.98-0.33,2.61-1c0.64-0.66,0.95-1.66,0.95-2.99v-10.9h5.45
		v10.73c0,3.02-0.8,5.28-2.39,6.76C81.1,34.28,78.87,35.03,76.02,35.03z"/>
	<path class="st0" d="M96.51,35c-3.65,0-6.68-1.07-9.07-3.21l2.99-3.57c1.94,1.55,4.03,2.32,6.28,2.32c1.47,0,2.21-0.46,2.21-1.38
		c0-0.41-0.22-0.74-0.66-1.01c-0.44-0.27-1.31-0.55-2.6-0.84c-1.18-0.28-2.15-0.55-2.92-0.82c-0.77-0.27-1.51-0.63-2.24-1.08
		c-0.73-0.45-1.27-1.03-1.62-1.73c-0.35-0.7-0.53-1.54-0.53-2.52c0-1.83,0.68-3.31,2.03-4.47c1.36-1.15,3.18-1.73,5.46-1.73
		c3.17,0,5.83,0.86,7.97,2.57l-2.68,3.79c-1.81-1.27-3.61-1.91-5.42-1.91c-0.63,0-1.11,0.12-1.44,0.36c-0.33,0.24-0.5,0.55-0.5,0.94
		c0,0.44,0.23,0.79,0.68,1.05c0.45,0.26,1.34,0.54,2.67,0.83c2.43,0.54,4.25,1.25,5.43,2.14c1.19,0.89,1.78,2.21,1.78,3.94
		c0,1.95-0.71,3.49-2.13,4.62C100.78,34.44,98.89,35,96.51,35z"/>
	<path class="st0" d="M106.79,34.67V15.31h7.47c3.39,0,6.06,0.89,8.01,2.66c1.95,1.77,2.92,4.09,2.92,6.97
		c0,2.86-0.99,5.2-2.96,7.01c-1.97,1.82-4.67,2.72-8.08,2.72H106.79z M112.15,29.91h2.19c1.62,0,2.92-0.43,3.89-1.3
		c0.97-0.87,1.45-2.08,1.45-3.65c0-1.53-0.48-2.74-1.45-3.62c-0.97-0.89-2.26-1.33-3.89-1.33h-2.19V29.91z"/>
	<path class="st0" d="M145.15,32.04c-1.83,1.97-4.17,2.96-7.03,2.96c-2.86,0-5.19-0.98-7-2.95c-1.81-1.96-2.71-4.32-2.71-7.07
		c0-2.73,0.91-5.08,2.74-7.05c1.83-1.97,4.17-2.96,7.03-2.96c2.86,0,5.19,0.98,7,2.95c1.81,1.96,2.71,4.32,2.71,7.07
		C147.89,27.72,146.98,30.07,145.15,32.04z M132.28,31.15c1.58,1.7,3.54,2.54,5.9,2.54c2.36,0,4.32-0.84,5.88-2.52
		c1.56-1.68,2.34-3.74,2.34-6.2c0-2.42-0.79-4.47-2.36-6.17c-1.58-1.7-3.55-2.54-5.9-2.54c-2.36,0-4.32,0.84-5.88,2.52
		c-1.56,1.68-2.34,3.74-2.34,6.2C129.91,27.4,130.7,29.46,132.28,31.15z"/>
	<path class="st0" d="M151.16,34.67V15.31h1.44v12.52l13.98-12.52h1.96l-8.85,8.05l9.21,11.31h-1.88l-8.4-10.34l-6.02,5.41v4.92
		H151.16z"/>
</g>
</svg>
