<svg width="20" height="19" viewBox="0 0 20 19" fill="none" xmlns="http://www.w3.org/2000/svg">
<path d="M4.21917 8.3753C4.56418 7.94404 5.19347 7.87412 5.62473 8.21913L10 11.7194L14.3753 8.21913C14.8066 7.87412 15.4359 7.94404 15.7809 8.3753C16.1259 8.80656 16.056 9.43586 15.6247 9.78087L11.2494 13.2811C10.519 13.8655 9.48108 13.8655 8.75065 13.2811L4.37534 9.78087C3.94408 9.43586 3.87416 8.80656 4.21917 8.3753Z" fill="#2B3450"/>
<path fill-rule="evenodd" clip-rule="evenodd" d="M11.926 1.41714C10.7266 0.758172 9.27345 0.758172 8.07399 1.41714L2.07399 4.71343C0.794864 5.41616 0 6.75977 0 8.21921V15C0 17.2091 1.79086 19 4 19H16C18.2091 19 20 17.2091 20 15V8.21921C20 6.75976 19.2051 5.41616 17.926 4.71343L11.926 1.41714ZM9.03699 3.17002C9.63672 2.84054 10.3633 2.84054 10.963 3.17002L16.963 6.46632C17.6026 6.81768 18 7.48949 18 8.21921V15C18 16.1046 17.1046 17 16 17H4C2.89543 17 2 16.1046 2 15V8.21921C2 7.48949 2.39743 6.81768 3.03699 6.46632L9.03699 3.17002Z" fill="#2B3450"/>
</svg>
