<svg width="19" height="19" viewBox="0 0 19 19" fill="none" xmlns="http://www.w3.org/2000/svg">
<circle cx="9.5" cy="9.5" r="8.5" fill="#FFD54F"/>
<path d="M3.33837 9.5C3.33837 18 10 18 10 18C5.02944 18 1 14.1944 1 9.5C1 4.80558 5.02944 1 10 1C10 1 3.33837 1 3.33837 9.5Z" fill="#E6C047"/>
<path d="M4.47524 2.6435C5.88276 1.61027 7.62011 1 9.5 1C14.1944 1 18 4.80558 18 9.5C18 14.1944 14.1944 18 9.5 18C4.80558 18 1 14.1944 1 9.5C1 7.70687 1.55524 6.04342 2.50317 4.67221" stroke="#2B3450" stroke-width="1.5" stroke-linecap="round"/>
<path d="M6 12C6 12 7.30165 13 9.5 13C11.6983 13 13 12 13 12" stroke="#2B3450" stroke-width="1.5" stroke-linecap="round"/>
<path d="M5.99972 11C5.99972 11 6.02012 11.3673 5.71408 11.6735C5.40805 11.9796 5 12 5 12" stroke="#2B3450" stroke-width="1.5" stroke-linecap="round"/>
<path d="M13.0003 11C13.0003 11 12.9799 11.3673 13.2859 11.6735C13.592 11.9796 14 12 14 12" stroke="#2B3450" stroke-width="1.5" stroke-linecap="round"/>
<circle cx="6.5" cy="7.5" r="1.5" fill="#2B3450"/>
<circle cx="12.5" cy="7.5" r="1.5" fill="#2B3450"/>
</svg>
