<svg width="16" height="19" viewBox="0 0 16 19" fill="none" xmlns="http://www.w3.org/2000/svg">
<path fill-rule="evenodd" clip-rule="evenodd" d="M8 2C6.89543 2 6 2.89543 6 4C6 5.10457 6.89543 6 8 6C9.10457 6 10 5.10457 10 4C10 2.89543 9.10457 2 8 2ZM4 4C4 1.79086 5.79086 0 8 0C10.2091 0 12 1.79086 12 4C12 6.20914 10.2091 8 8 8C5.79086 8 4 6.20914 4 4ZM0 16.5C0 12.3579 3.35786 9 7.5 9H8.5C12.6421 9 16 12.3579 16 16.5V17C16 18.1046 15.1046 19 14 19H2C0.895432 19 0 18.1046 0 17V16.5ZM7.5 11C4.46243 11 2 13.4624 2 16.5V17H14V16.5C14 13.4624 11.5376 11 8.5 11H7.5Z" fill="#2B3450"/>
</svg>
