<svg width="20" height="14" viewBox="0 0 20 14" fill="none"
  xmlns="http://www.w3.org/2000/svg">
  <path fill-rule="evenodd" clip-rule="evenodd" d="M1.8579 7C1.94038 7.13961 2.04984 7.31694 2.1862 7.52147C2.54087 8.05348 3.0729 8.76258 3.77999 9.46967C5.19824 10.8879 7.26873 12.25 9.99966 12.25C12.7306 12.25 14.8011 10.8879 16.2193 9.46967C16.9264 8.76258 17.4584 8.05348 17.8131 7.52147C17.9495 7.31694 18.0589 7.13961 18.1414 7C18.0589 6.86039 17.9495 6.68306 17.8131 6.47853C17.4584 5.94652 16.9264 5.23742 16.2193 4.53033C14.8011 3.11208 12.7306 1.75 9.99966 1.75C7.26873 1.75 5.19824 3.11208 3.77999 4.53033C3.0729 5.23742 2.54087 5.94652 2.1862 6.47853C2.04984 6.68306 1.94038 6.86039 1.8579 7ZM18.9997 7C19.6705 6.66459 19.6703 6.6643 19.6702 6.664L19.6698 6.66326L19.6689 6.66139L19.6661 6.656L19.6573 6.63881C19.65 6.62453 19.6396 6.6047 19.6263 6.57968C19.5996 6.52964 19.5609 6.45878 19.5102 6.37008C19.4089 6.19279 19.2593 5.9436 19.0612 5.64647C18.6659 5.05348 18.0729 4.26258 17.28 3.46967C15.6982 1.88792 13.2687 0.25 9.99966 0.25C6.73059 0.25 4.30108 1.88792 2.71933 3.46967C1.92642 4.26258 1.33345 5.05348 0.938121 5.64647C0.740035 5.9436 0.590413 6.19279 0.489101 6.37008C0.438417 6.45878 0.399737 6.52964 0.37305 6.57968C0.359703 6.6047 0.349348 6.62453 0.341982 6.63881L0.333171 6.656L0.330445 6.66139L0.329502 6.66326L0.329135 6.664C0.328981 6.6643 0.328838 6.66459 0.999658 7L0.328838 6.66459L0.161133 7L0.328838 7.33541L0.999658 7C0.328838 7.33541 0.328981 7.3357 0.329135 7.336L0.329502 7.33674L0.330445 7.33861L0.333171 7.344L0.341982 7.36119C0.349348 7.37547 0.359703 7.3953 0.37305 7.42032C0.399737 7.47036 0.438417 7.54122 0.489101 7.62992C0.590413 7.80721 0.740035 8.0564 0.938121 8.35353C1.33345 8.94652 1.92642 9.73742 2.71933 10.5303C4.30108 12.1121 6.73059 13.75 9.99966 13.75C13.2687 13.75 15.6982 12.1121 17.28 10.5303C18.0729 9.73742 18.6659 8.94652 19.0612 8.35353C19.2593 8.0564 19.4089 7.80721 19.5102 7.62992C19.5609 7.54122 19.5996 7.47036 19.6263 7.42032C19.6396 7.3953 19.65 7.37547 19.6573 7.36119L19.6661 7.344L19.6689 7.33861L19.6698 7.33674L19.6702 7.336C19.6703 7.3357 19.6705 7.33541 18.9997 7ZM18.9997 7L19.6705 7.33541L19.8382 7L19.6705 6.66459L18.9997 7Z" fill="#A0A7B5"/>
  <path fill-rule="evenodd" clip-rule="evenodd" d="M10 8.5C10.8284 8.5 11.5 7.82843 11.5 7C11.5 6.17157 10.8284 5.5 10 5.5C9.17157 5.5 8.5 6.17157 8.5 7C8.5 7.82843 9.17157 8.5 10 8.5ZM10 10C11.6569 10 13 8.65685 13 7C13 5.34315 11.6569 4 10 4C8.34315 4 7 5.34315 7 7C7 8.65685 8.34315 10 10 10Z" fill="#A0A7B5"/>
</svg>
