<svg width="24" height="14" viewBox="0 0 24 14" fill="none" xmlns="http://www.w3.org/2000/svg">
<path d="M21.2797 5.87818C21.621 5.43699 21.8919 5.08298 22.092 4.81591C23.5331 2.89992 24.1578 1.67597 23.9663 1.14235L23.8912 1.01738C23.8413 0.942314 23.7119 0.87338 23.5038 0.810983C23.2955 0.748632 23.029 0.738668 22.7042 0.77983L19.1055 0.805213C19.0222 0.796917 18.9388 0.798855 18.8555 0.810983C18.7722 0.823652 18.7182 0.836366 18.693 0.848493C18.6679 0.861207 18.6472 0.871396 18.6307 0.879692L18.5807 0.917202C18.5391 0.942043 18.4933 0.98591 18.4434 1.04858C18.3934 1.1112 18.3514 1.18378 18.3184 1.26737C17.9268 2.27527 17.4812 3.21258 16.9813 4.07896C16.673 4.59549 16.3897 5.04358 16.1318 5.42211C15.8735 5.80149 15.6569 6.08047 15.4819 6.25923C15.307 6.43831 15.1486 6.58231 15.0071 6.69024C14.8653 6.79894 14.7571 6.84447 14.6824 6.82792C14.6073 6.81138 14.5364 6.79483 14.4699 6.7777C14.3532 6.70295 14.2594 6.60111 14.1888 6.47171C14.1179 6.34291 14.0702 6.18034 14.045 5.98444C14.0202 5.78882 14.0053 5.61998 14.0014 5.47815C13.997 5.33663 13.9992 5.13686 14.0078 4.8783C14.0161 4.62002 14.0202 4.4454 14.0202 4.35352C14.0202 4.0373 14.0265 3.69353 14.039 3.32272C14.0514 2.95217 14.0619 2.65831 14.0702 2.44168C14.0785 2.22537 14.0826 1.99607 14.0826 1.75437C14.0826 1.51322 14.0679 1.32337 14.0386 1.18572C14.0094 1.04858 13.9655 0.915308 13.9076 0.785916C13.8491 0.657066 13.7638 0.556888 13.6512 0.486287C13.5387 0.415369 13.3993 0.359374 13.2327 0.317401C12.7909 0.217224 12.2286 0.163709 11.5458 0.154917C9.99621 0.138912 9.00071 0.238774 8.55924 0.455088C8.38431 0.54697 8.22593 0.671673 8.08441 0.830054C7.93433 1.01355 7.91363 1.11368 8.02206 1.12968C8.522 1.20475 8.87578 1.38409 9.08407 1.66718L9.15913 1.81699C9.21733 1.92569 9.27558 2.11721 9.33406 2.392C9.39231 2.66683 9.42982 2.97088 9.44663 3.30419C9.48829 3.91228 9.48829 4.43269 9.44663 4.86618C9.40498 5.29961 9.36553 5.6368 9.32802 5.87796C9.29046 6.11965 9.2342 6.31527 9.1594 6.46509C9.08434 6.61544 9.03443 6.70705 9.00932 6.74042C8.9842 6.77351 8.96351 6.79447 8.94696 6.80281C8.83854 6.8442 8.72623 6.86517 8.60955 6.86517C8.49283 6.86517 8.35127 6.80664 8.18464 6.68992C8.01796 6.57378 7.84497 6.41319 7.66617 6.20901C7.48682 6.00514 7.28512 5.71957 7.05996 5.35286C6.83508 4.98673 6.60164 4.55325 6.36021 4.05358L6.16044 3.69101C6.03547 3.45815 5.86465 3.11848 5.64806 2.67287C5.43148 2.22726 5.23969 1.7963 5.07333 1.37941C5.00656 1.20475 4.90665 1.07148 4.77343 0.979598L4.71108 0.942088C4.66942 0.908951 4.60265 0.87338 4.51104 0.836095C4.41916 0.798585 4.32371 0.771534 4.22354 0.754718L0.799704 0.77956C0.44985 0.77956 0.212572 0.859043 0.0875987 1.01738L0.0376453 1.09217C0.0123982 1.1341 0 1.20087 0 1.29221C0 1.38409 0.0251119 1.4964 0.0750652 1.6294C0.575004 2.80425 1.11858 3.93717 1.70572 5.02812C2.29316 6.11965 2.80334 6.9987 3.23651 7.66505C3.66968 8.33194 4.11114 8.96045 4.56117 9.552C5.0112 10.1436 5.30889 10.5224 5.45456 10.6888C5.60023 10.8557 5.71474 10.9807 5.7981 11.0637L6.11045 11.3639C6.31021 11.5637 6.60407 11.8032 6.99148 12.0824C7.37885 12.3616 7.80764 12.6364 8.27864 12.9069C8.74909 13.1778 9.29704 13.3982 9.92169 13.5693C10.5464 13.7404 11.1545 13.809 11.746 13.7754H13.183C13.4747 13.7506 13.6953 13.6593 13.8452 13.5006L13.8951 13.4382C13.9282 13.3885 13.9597 13.3113 13.9889 13.2073C14.0179 13.1032 14.0329 12.9885 14.0329 12.8638C14.0243 12.5057 14.0516 12.1823 14.114 11.8953C14.1763 11.6078 14.2472 11.3915 14.3265 11.2453C14.4056 11.0998 14.495 10.9768 14.5951 10.8766C14.6951 10.7764 14.7657 10.7166 14.8076 10.6956C14.8493 10.6752 14.8827 10.6606 14.9076 10.6517C15.1073 10.5852 15.3426 10.6498 15.6136 10.8454C15.8843 11.0416 16.1384 11.2827 16.3759 11.5702C16.6132 11.8577 16.8985 12.1803 17.2318 12.5387C17.5649 12.8968 17.8565 13.1633 18.1065 13.3383L18.3564 13.4887C18.523 13.5883 18.7394 13.6799 19.0062 13.7635C19.2727 13.8465 19.5062 13.8675 19.7059 13.8259L22.9049 13.7756C23.2214 13.7756 23.4672 13.7238 23.6422 13.6195C23.8171 13.516 23.9212 13.4007 23.9545 13.276C23.9876 13.151 23.9898 13.01 23.9609 12.8513C23.9317 12.6932 23.9024 12.5828 23.8735 12.5205C23.8442 12.4581 23.8171 12.4057 23.792 12.3643C23.3754 11.6147 22.5799 10.6939 21.4053 9.60268L21.3802 9.57784L21.3678 9.56517L21.3554 9.553H21.3429C20.8095 9.04476 20.4723 8.70316 20.3308 8.52796C20.0726 8.19524 20.0141 7.85778 20.1559 7.51623C20.2552 7.25722 20.6299 6.71147 21.2797 5.87818Z" fill="#01579B"/>
</svg>
