<svg width="20" height="20" viewBox="0 0 20 20" fill="none"
  xmlns="http://www.w3.org/2000/svg">
  <path d="M9.00009 0C11.7615 0 14.0001 2.23858 14.0001 5C14.0001 5.55228 13.5524 6 13.0001 6C12.4478 6 12.0001 5.55228 12.0001 5C12.0001 3.34315 10.6569 2 9.00009 2H5.00009C3.34324 2 2.00009 3.34315 2.00009 5V15C2.00009 16.6569 3.34324 18 5.00009 18H9.00009C10.6569 18 12.0001 16.6569 12.0001 15C12.0001 14.4477 12.4478 14 13.0001 14C13.5524 14 14.0001 14.4477 14.0001 15C14.0001 17.7614 11.7615 20 9.00009 20H5.00009C2.23867 20 9.34601e-05 17.7614 9.34601e-05 15V5C9.34601e-05 2.23858 2.23867 0 5.00009 0H9.00009Z" fill="#387DFF"/>
  <path d="M8.00009 9C7.44781 9 7.00009 9.44772 7.00009 10C7.00009 10.5523 7.44781 11 8.00009 11V9Z" fill="#387DFF"/>
  <path d="M16.2822 9C16.1932 8.89023 16.1079 8.78371 16.0272 8.68195C15.7817 8.37235 15.5738 8.10041 15.4271 7.90549C15.3536 7.80795 15.2953 7.72946 15.255 7.67492L15.2085 7.61162L15.196 7.59454L15.1916 7.58848C15.1915 7.58842 15.1911 7.58778 16.0001 7L15.1916 7.58848C14.867 7.14167 14.9655 6.51561 15.4123 6.19098C15.8591 5.86637 16.4844 5.9654 16.8091 6.41215L16.8119 6.41602L16.8221 6.43002L16.8639 6.48679C16.9008 6.53682 16.9554 6.61033 17.0248 6.7025C17.1638 6.88702 17.3613 7.14542 17.5943 7.43937C18.0656 8.0337 18.6624 8.7481 19.2072 9.29289L19.9143 10L19.2072 10.7071C18.6624 11.2519 18.0656 11.9663 17.5943 12.5606C17.3613 12.8546 17.1638 13.113 17.0248 13.2975C16.9554 13.3897 16.9008 13.4632 16.8639 13.5132L16.8221 13.57L16.8119 13.584L16.8095 13.5872C16.4849 14.0339 15.8591 14.1336 15.4123 13.809C14.9655 13.4844 14.8665 12.859 15.1911 12.4122L16.0001 13C15.1911 12.4122 15.191 12.4123 15.1911 12.4122L15.196 12.4055L15.2085 12.3884L15.255 12.3251C15.2953 12.2705 15.3536 12.1921 15.4271 12.0945C15.5738 11.8996 15.7817 11.6277 16.0272 11.318C16.1079 11.2163 16.1932 11.1098 16.2822 11H8.00009V9H16.2822Z" fill="#387DFF"/>
</svg>
