<svg width="22" height="20" viewBox="0 0 22 20" fill="none" xmlns="http://www.w3.org/2000/svg">
<rect width="22" height="20" fill="#1E1E1E"/>
<rect width="3468" height="1918" transform="translate(-1235 -793)" fill="white"/>
<path fill-rule="evenodd" clip-rule="evenodd" d="M0 2C0 0.89543 0.89543 0 2 0H20C21.1046 0 22 0.89544 22 2V15C22 16.1046 21.1046 17 20 17H2C0.89544 17 0 16.1046 0 15V2ZM20 2H2V15H20V2Z" fill="#2B3450"/>
<path fill-rule="evenodd" clip-rule="evenodd" d="M4 5C4 4.44772 4.44772 4 5 4H17C17.5523 4 18 4.44772 18 5C18 5.55228 17.5523 6 17 6H5C4.44772 6 4 5.55228 4 5Z" fill="#2B3450"/>
<path fill-rule="evenodd" clip-rule="evenodd" d="M4 8.5C4 7.94772 4.44772 7.5 5 7.5H8C8.55228 7.5 9 7.94772 9 8.5C9 9.05228 8.55228 9.5 8 9.5H5C4.44772 9.5 4 9.05228 4 8.5Z" fill="#2B3450"/>
<path fill-rule="evenodd" clip-rule="evenodd" d="M4 12C4 11.4477 4.44772 11 5 11H7C7.55228 11 8 11.4477 8 12C8 12.5523 7.55228 13 7 13H5C4.44772 13 4 12.5523 4 12Z" fill="#2B3450"/>
<path fill-rule="evenodd" clip-rule="evenodd" d="M14 9.5C12.8954 9.5 12 10.3954 12 11.5C12 12.6046 12.8954 13.5 14 13.5C15.1046 13.5 16 12.6046 16 11.5C16 10.3954 15.1046 9.5 14 9.5ZM10 11.5C10 9.29086 11.7909 7.5 14 7.5C16.2091 7.5 18 9.29086 18 11.5C18 13.7091 16.2091 15.5 14 15.5C11.7909 15.5 10 13.7091 10 11.5Z" fill="#2B3450"/>
<path d="M14 18L16 19V13.7361C16 13.7361 15.4297 14.5 14 14.5C12.5703 14.5 12 13.75 12 13.75V19L14 18Z" fill="white"/>
<path fill-rule="evenodd" clip-rule="evenodd" d="M16.3152 12.7871C16.7241 12.9228 17 13.3053 17 13.7361V19C17 19.3466 16.8205 19.6684 16.5257 19.8506C16.2309 20.0328 15.8628 20.0494 15.5528 19.8944L14 19.118L12.4472 19.8944C12.1372 20.0494 11.7691 20.0328 11.4743 19.8506C11.1795 19.6684 11 19.3466 11 19V13.75C11 13.3208 11.2739 12.9394 11.6806 12.8024C12.0765 12.6689 12.5122 12.7959 12.7748 13.1177C12.7779 13.1209 12.7834 13.1265 12.7915 13.134C12.8195 13.16 12.8771 13.2083 12.9679 13.2613C13.1427 13.3633 13.4697 13.5 14 13.5C14.5266 13.5 14.8511 13.3619 15.0252 13.2584C15.1157 13.2046 15.1735 13.1553 15.2018 13.1285C15.2103 13.1205 15.2161 13.1146 15.2192 13.1112C15.4799 12.7854 15.917 12.6548 16.3152 12.7871ZM15 15.3908C14.7042 15.4588 14.3713 15.5 14 15.5C13.6286 15.5 13.2957 15.4593 13 15.3924V17.382L13.5528 17.1056C13.8343 16.9648 14.1657 16.9648 14.4472 17.1056L15 17.382V15.3908ZM12.7953 13.1438C12.7953 13.1438 12.7953 13.1438 12.7953 13.1438L12.7953 13.1437C12.7953 13.1437 12.7953 13.1438 12.7953 13.1438Z" fill="#2B3450"/>
</svg>
