<svg width="20" height="18" viewBox="0 0 20 18" fill="none" xmlns="http://www.w3.org/2000/svg">
<path d="M5 4C4.44772 4 4 4.44772 4 5C4 5.55228 4.44772 6 5 6H11C11.5523 6 12 5.55228 12 5C12 4.44772 11.5523 4 11 4H5Z" fill="#FF5531"/>
<path d="M4 9C4 8.44771 4.44772 8 5 8H11C11.5523 8 12 8.44771 12 9C12 9.55229 11.5523 10 11 10H5C4.44772 10 4 9.55229 4 9Z" fill="#FF5531"/>
<path d="M5 12C4.44772 12 4 12.4477 4 13C4 13.5523 4.44772 14 5 14H11C11.5523 14 12 13.5523 12 13C12 12.4477 11.5523 12 11 12H5Z" fill="#FF5531"/>
<path fill-rule="evenodd" clip-rule="evenodd" d="M3.625 18H16.375C18.3918 18 20 16.3435 20 14.3333V3.66667C20 1.65653 18.3918 0 16.375 0H3.625C1.60818 0 0 1.65653 0 3.66667V14.3333C0 16.3435 1.60818 18 3.625 18ZM3.625 2C2.74233 2 2 2.73129 2 3.66667V14.3333C2 15.2687 2.74233 16 3.625 16H12.375C13.2577 16 14 15.2687 14 14.3333V3.66667C14 2.73129 13.2577 2 12.375 2H3.625ZM16.375 16H15.6042C15.8575 15.4987 16 14.9317 16 14.3333V3.66667C16 3.06833 15.8575 2.50132 15.6042 2H16.375C17.2577 2 18 2.73129 18 3.66667V14.3333C18 15.2687 17.2577 16 16.375 16Z" fill="#FF5531"/>
</svg>
