<svg width="12" height="24" viewBox="0 0 12 24" fill="none" xmlns="http://www.w3.org/2000/svg">
<path d="M2.47097 11.9913C1.61189 11.9913 0.823656 11.9913 0 11.9913C0 10.6385 0 9.32073 0 7.95055C0.797087 7.95055 1.60303 7.95055 2.45326 7.95055C2.45326 6.98182 2.42669 6.07418 2.46211 5.15782C2.5064 4.21527 2.61267 3.27273 3.0555 2.40873C3.70203 1.17818 4.7471 0.418909 6.13757 0.279273C7.78488 0.113455 9.44105 0.0872727 11.1415 0C11.1415 1.43127 11.1415 2.75782 11.1415 4.13673C10.5481 4.13673 9.96359 4.128 9.37906 4.13673C9.03365 4.14545 8.67939 4.17164 8.33399 4.23273C7.76717 4.33745 7.49262 4.75636 7.46605 5.59418C7.43948 6.34473 7.45719 7.104 7.45719 7.91564C8.72367 7.91564 9.96359 7.91564 11.2566 7.91564C11.2212 8.41309 11.2035 8.84945 11.1592 9.28582C11.0884 10.0102 10.9732 10.7345 10.9201 11.4676C10.8935 11.8429 10.7961 12.0087 10.3798 12C9.42334 11.9738 8.46683 11.9913 7.4749 11.9913C7.4749 16.0058 7.4749 19.9855 7.4749 24C5.79216 24 4.15371 24 2.47097 24C2.47097 20.0204 2.47097 16.0407 2.47097 11.9913Z" fill="#000DFF"/>
</svg>
