<svg width="6" height="20" viewBox="0 0 6 20" fill="none" xmlns="http://www.w3.org/2000/svg">
<path fill-rule="evenodd" clip-rule="evenodd" d="M5.5 3C5.5 4.38071 4.38071 5.5 3 5.5C1.61929 5.5 0.5 4.38071 0.5 3C0.5 1.61929 1.61929 0.5 3 0.5C4.38071 0.5 5.5 1.61929 5.5 3ZM3 4C3.55228 4 4 3.55228 4 3C4 2.44772 3.55228 2 3 2C2.44772 2 2 2.44772 2 3C2 3.55228 2.44772 4 3 4ZM5.5 10C5.5 11.3807 4.38071 12.5 3 12.5C1.61929 12.5 0.5 11.3807 0.5 10C0.5 8.61929 1.61929 7.5 3 7.5C4.38071 7.5 5.5 8.61929 5.5 10ZM3 11C3.55228 11 4 10.5523 4 10C4 9.44771 3.55228 9 3 9C2.44772 9 2 9.44771 2 10C2 10.5523 2.44772 11 3 11ZM3 19.5C4.38071 19.5 5.5 18.3807 5.5 17C5.5 15.6193 4.38071 14.5 3 14.5C1.61929 14.5 0.5 15.6193 0.5 17C0.5 18.3807 1.61929 19.5 3 19.5ZM4 17C4 17.5523 3.55228 18 3 18C2.44772 18 2 17.5523 2 17C2 16.4477 2.44772 16 3 16C3.55228 16 4 16.4477 4 17Z" fill="#A0A7B5"/>
</svg>
