<svg width="19" height="18" viewBox="0 0 19 18" fill="none" xmlns="http://www.w3.org/2000/svg">
<path fill-rule="evenodd" clip-rule="evenodd" d="M7.66776 2.45455V2.92808C5.31418 3.9208 3.66985 7.18142 3.72952 10.0072L3.7295 11.5768C2.52465 13.17 2.59554 15.5455 5.60148 15.5455H7.66776C7.66776 16.1964 7.9144 16.8208 8.35343 17.2811C8.79245 17.7414 9.38789 18 10.0088 18C10.6296 18 11.2251 17.7414 11.6641 17.2811C12.1031 16.8208 12.3498 16.1964 12.3498 15.5455H14.4217C17.4219 15.5455 17.4654 13.165 16.2608 11.5718L16.2942 10.0095C16.3549 7.1803 14.7074 3.91674 12.3498 2.92544V2.45455C12.3498 1.80356 12.1031 1.17924 11.6641 0.71892C11.2251 0.258603 10.6296 0 10.0088 0C9.3879 0 8.79245 0.258603 8.35343 0.71892C7.9144 1.17924 7.66776 1.80356 7.66776 2.45455ZM10.7891 2.45455C10.7891 2.45455 10.7886 2.48772 10.7877 2.50421C10.5335 2.47143 10.2746 2.45455 10.0119 2.45455C9.74703 2.45455 9.48606 2.47171 9.22992 2.50502C9.22893 2.48826 9.22843 2.47143 9.22843 2.45455C9.22843 2.23755 9.31065 2.02944 9.45699 1.876C9.60333 1.72256 9.80181 1.63636 10.0088 1.63636C10.2157 1.63636 10.4142 1.72256 10.5606 1.876C10.7069 2.02944 10.7891 2.23755 10.7891 2.45455ZM9.22843 15.5455C9.22843 15.7625 9.31065 15.9706 9.45699 16.124C9.60333 16.2774 9.80181 16.3636 10.0088 16.3636C10.2157 16.3636 10.4142 16.2774 10.5606 16.124C10.7069 15.9706 10.7891 15.7625 10.7891 15.5455H9.22843ZM14.4217 13.9091C15.0884 13.9091 15.4481 13.0892 15.0142 12.5584C14.8031 12.3002 14.691 11.9751 14.6982 11.6417L14.734 9.9727C14.7935 7.19475 12.662 4.09091 10.0119 4.09091C7.3624 4.09091 5.23116 7.19371 5.28981 9.97103L5.32509 11.6419C5.33213 11.9753 5.22006 12.3003 5.00901 12.5584C4.57513 13.0892 4.9348 13.9091 5.60148 13.9091H14.4217ZM14.3897 1.02484C14.7044 0.570944 15.3274 0.458055 15.7813 0.772693C16.8371 1.50458 18.0863 3.24282 18.7673 5.28976C18.9416 5.81381 18.6581 6.37996 18.134 6.55429C17.61 6.72862 17.0438 6.44512 16.8695 5.92107C16.28 4.14883 15.24 2.83101 14.6419 2.41639C14.188 2.10176 14.0751 1.47874 14.3897 1.02484ZM4.02078 0.772693C4.47468 0.458055 5.0977 0.570944 5.41233 1.02484C5.72697 1.47874 5.61408 2.10176 5.16019 2.41639C4.56206 2.83101 3.5221 4.14883 2.93254 5.92107C2.75821 6.44512 2.19206 6.72862 1.66802 6.55429C1.14397 6.37996 0.860465 5.81381 1.0348 5.28976C1.71573 3.24282 2.96497 1.50458 4.02078 0.772693Z" fill="#4E5E78"/>
</svg>
