<svg width="20" height="14" viewBox="0 0 20 14" fill="none" xmlns="http://www.w3.org/2000/svg">
<path fill-rule="evenodd" clip-rule="evenodd" d="M0 4C0 1.79086 1.79086 0 4 0H11C13.2091 0 15 1.79086 15 4V4.07171L18.202 2.23108C19.0019 1.77121 20 2.34868 20 3.27144V10.7488C20 11.6203 19.1003 12.2012 18.306 11.8424L14.9855 10.3425C14.8118 12.3913 13.0938 14 11 14H4C1.79086 14 0 12.2091 0 10V4ZM15 8.15443L18 9.50958V4.65407L15 6.37861V8.15443ZM13 4C13 2.89543 12.1046 2 11 2H4C2.89543 2 2 2.89543 2 4V10C2 11.1046 2.89543 12 4 12H11C12.1046 12 13 11.1046 13 10V4Z" fill="#387DFF"/>
</svg>
